P3
65 65
255
255 255 255 255 255 255 255 255 255 255 255 255 255 255 255 255 255 255 255 255 255 255 255 255 255 255 255 255 255 255 255 255 255 255 255 255 255 255 255 255 255 255 255 255 255 255 255 255 255 255 255 255 255 255 255 255 255 255 255 255 255 255 255 255 255 255 255 255 255 255 255 255 255 255 255 255 255 255 255 255 255 255 255 255 255 255 255 255 255 255 255 255 255 255 255 255 255 255 255 255 255 255 255 255 255 255 255 255 255 255 255 255 255 255 255 255 255 255 255 255 255 255 255 255 255 255 255 255 255 255 255 255 255 255 255 255 255 255 255 255 255 255 255 255 255 255 255 255 255 255 255 255 255 255 255 255 255 255 255 255 255 255 255 255 255 255 255 255 255 255 255 255 255 255 255 255 255 255 255 255 255 255 255 255 255 255 255 255 255 255 255 255 255 255 255 
255 255 255 255 255 255 255 255 255 255 255 255 255 255 255 255 255 255 255 255 255 255 255 255 255 255 255 255 255 255 255 255 255 255 255 255 255 255 255 255 255 255 255 255 255 255 255 255 255 255 255 255 255 255 255 255 255 255 255 255 255 255 255 255 255 255 255 255 255 255 255 255 255 255 255 255 255 255 255 255 255 252 252 253 251 251 251 251 251 251 251 251 251 253 253 253 255 255 255 255 255 255 255 255 255 255 255 255 255 255 255 255 255 255 255 255 255 255 255 255 255 255 255 255 255 255 255 255 255 255 255 255 255 255 255 255 255 255 255 255 255 255 255 255 255 255 255 255 255 255 255 255 255 255 255 255 255 255 255 255 255 255 255 255 255 255 255 255 255 255 255 255 255 255 255 255 255 255 255 255 255 255 255 255 255 255 255 255 255 255 255 255 255 255 255 
255 255 255 255 255 255 255 255 255 255 255 255 255 255 255 255 255 255 255 255 255 255 255 255 255 255 255 255 255 255 255 255 255 255 255 255 255 255 255 255 255 255 255 255 255 255 255 255 255 255 255 255 255 255 255 255 255 255 255 255 255 255 255 255 255 255 255 255 255 255 255 255 255 255 255 254 254 254 251 251 252 255 255 255 255 255 255 255 255 255 255 255 255 255 255 255 251 251 251 254 254 254 255 255 255 255 255 255 255 255 255 255 255 255 255 255 255 255 255 255 255 255 255 255 255 255 255 255 255 255 255 255 255 255 255 255 255 255 255 255 255 255 255 255 255 255 255 255 255 255 255 255 255 255 255 255 255 255 255 255 255 255 255 255 255 255 255 255 255 255 255 255 255 255 255 255 255 255 255 255 255 255 255 255 255 255 255 255 255 255 255 255 255 255 255 
255 255 255 255 255 255 255 255 255 255 255 255 255 255 255 255 255 255 255 255 255 255 255 255 255 255 255 255 255 255 255 255 255 255 255 255 255 255 255 255 255 255 255 255 255 255 255 255 255 255 255 255 255 255 255 255 255 255 255 255 255 255 255 255 255 255 255 255 255 255 255 255 253 253 253 255 255 255 255 255 255 250 250 250 220 223 227 213 217 222 230 232 235 255 255 255 255 255 255 253 253 254 253 253 253 255 255 255 255 255 255 255 255 255 255 255 255 255 255 255 255 255 255 255 255 255 255 255 255 255 255 255 255 255 255 255 255 255 255 255 255 255 255 255 255 255 255 255 255 255 255 255 255 255 255 255 255 255 255 255 255 255 255 255 255 255 255 255 255 255 255 255 255 255 255 255 255 255 255 255 255 255 255 255 255 255 255 255 255 255 255 255 255 255 255 
255 255 255 255 255 255 255 255 255 255 255 255 255 255 255 255 255 255 255 255 255 255 255 255 255 255 255 255 255 255 255 255 255 255 255 255 255 255 255 255 255 255 255 255 255 255 255 255 255 255 255 255 255 255 255 255 255 255 255 255 255 255 255 255 255 255 255 255 255 252 252 252 255 255 255 255 255 255 187 191 195 105 109 112 126 106 79 136 111 74 117 104 88 119 127 134 206 209 212 255 255 255 255 255 255 253 253 253 255 255 255 255 255 255 255 255 255 255 255 255 255 255 255 255 255 255 255 255 255 255 255 255 255 255 255 255 255 255 255 255 255 255 255 255 255 255 255 255 255 255 255 255 255 255 255 255 255 255 255 255 255 255 255 255 255 255 255 255 255 255 255 255 255 255 255 255 255 255 255 255 255 255 255 255 255 255 255 255 255 255 255 255 255 255 255 
255 255 255 255 255 255 255 255 255 255 255 255 255 255 255 255 255 255 255 255 255 255 255 255 255 255 255 255 255 255 255 255 255 255 255 255 255 255 255 255 255 255 255 255 255 255 255 255 255 255 255 255 255 255 255 255 255 255 255 255 255 255 255 255 255 255 252 252 252 255 255 255 255 255 254 141 147 154 110 77 0 219 170 86 247 195 108 250 197 110 241 189 102 201 155 73 91 66 0 156 162 168 255 255 255 255 255 255 253 253 253 255 255 255 255 255 255 255 255 255 255 255 255 255 255 255 255 255 255 255 255 255 255 255 255 255 255 255 255 255 255 255 255 255 255 255 255 255 255 255 255 255 255 255 255 255 255 255 255 255 255 255 255 255 255 255 255 255 255 255 255 255 255 255 255 255 255 255 255 255 255 255 255 255 255 255 255 255 255 255 255 255 255 255 255 
255 255 255 255 255 255 255 255 255 255 255 255 255 255 255 255 255 255 255 255 255 255 255 255 255 255 255 255 255 255 255 255 255 255 255 255 255 255 255 255 255 255 255 255 255 255 255 255 255 255 255 255 255 255 255 255 255 255 255 255 255 255 255 253 253 253 255 255 255 255 255 255 144 151 158 129 90 0 255 203 120 255 213 128 255 208 124 255 207 124 255 209 125 255 213 128 248 197 114 118 80 0 154 159 166 255 255 255 255 255 255 254 254 254 255 255 255 255 255 255 255 255 255 255 255 255 253 253 253 253 253 253 253 253 253 253 253 253 254 254 254 255 255 255 255 255 255 255 255 255 255 255 255 255 255 255 255 255 255 255 255 255 255 255 255 255 255 255 255 255 255 255 255 255 255 255 255 255 255 255 255 255 255 255 255 255 255 255 255 255 255 255 255 255 255 
255 255 255 255 255 255 255 255 255 255 255 255 255 255 255 255 255 255 255 255 255 255 255 255 255 255 255 255 255 255 255 255 255 255 255 255 255 255 255 255 255 255 255 255 255 255 255 255 255 255 255 255 255 255 255 255 255 255 255 255 254 254 254 254 254 254 255 255 255 184 189 194 105 70 0 254 203 121 255 210 125 251 200 116 253 201 117 253 201 117 253 201 117 252 200 116 255 212 128 249 198 115 99 70 0 199 203 207 255 255 255 252 252 252 255 255 255 255 255 255 254 254 254 255 255 255 255 255 255 255 255 255 255 255 255 255 255 255 255 255 255 255 255 255 254 254 254 255 255 255 255 255 255 255 255 255 255 255 255 255 255 255 255 255 255 255 255 255 255 255 255 255 255 255 255 255 255 255 255 255 255 255 255 255 255 255 255 255 255 255 255 255 255 255 255 
255 255 255 255 255 255 255 255 255 255 255 255 255 255 255 255 255 255 255 255 255 255 255 255 255 255 255 255 255 255 255 255 255 255 255 255 255 255 255 255 255 255 255 255 255 255 255 255 255 255 255 255 255 255 255 255 255 255 255 255 253 253 253 255 255 255 233 235 237 90 85 79 226 177 94 255 214 130 250 199 115 254 202 118 255 205 120 255 208 121 255 208 121 255 204 119 250 199 115 255 216 132 205 158 71 116 120 124 250 250 251 255 255 255 252 252 252 255 255 255 255 255 255 254 253 253 221 217 216 187 180 179 174 167 165 190 183 181 230 228 227 255 255 255 255 255 255 254 254 254 255 255 255 255 255 255 255 255 255 255 255 255 255 255 255 255 255 255 255 255 255 255 255 255 255 255 255 255 255 255 255 255 255 255 255 255 255 255 255 255 255 255 255 255 255 
255 255 255 255 255 255 255 255 255 255 255 255 255 255 255 255 255 255 255 255 255 255 255 255 255 255 255 255 255 255 255 255 255 255 255 255 255 255 255 255 255 255 255 255 255 255 255 255 255 255 255 255 255 255 255 255 255 254 254 254 255 255 255 255 255 255 170 176 181 154 112 0 255 214 131 253 201 117 253 201 117 255 209 121 250 199 116 220 175 104 223 178 105 255 203 119 255 203 118 255 207 123 251 199 115 122 96 52 211 215 219 255 255 255 253 253 253 255 255 255 215 211 210 110 104 103 0 75 88 0 120 137 0 135 154 0 117 133 0 49 60 164 158 156 252 252 252 255 255 255 254 254 254 255 255 255 255 255 255 255 255 255 255 255 255 255 255 255 255 255 255 255 255 255 255 255 255 255 255 255 255 255 255 255 255 255 255 255 255 255 255 255 255 255 255 
255 255 255 255 255 255 255 255 255 255 255 255 255 255 255 255 255 255 255 255 255 255 255 255 255 255 255 255 255 255 255 255 255 255 255 255 255 255 255 255 255 255 255 255 255 255 255 255 255 255 255 255 255 255 255 255 255 253 253 254 255 255 255 249 250 251 127 127 127 212 164 77 255 215 131 248 197 114 255 209 122 218 174 104 104 86 59 112 92 62 98 81 57 137 111 71 249 198 117 255 203 118 255 211 128 165 123 34 172 177 183 255 255 255 255 255 255 182 176 174 0 0 34 0 159 178 39 205 227 44 212 235 41 212 235 46 214 236 46 202 223 0 79 99 152 145 143 255 255 255 255 255 255 254 254 254 255 255 255 255 255 255 255 255 255 255 255 255 255 255 255 255 255 255 255 255 255 255 255 255 255 255 255 255 255 255 255 255 255 255 255 255 255 255 255 
255 255 255 255 255 255 255 255 255 255 255 255 255 255 255 255 255 255 255 255 255 255 255 255 255 255 255 255 255 255 255 255 255 255 255 255 255 255 255 254 254 254 253 253 253 253 253 253 254 254 254 255 255 255 255 255 255 254 254 254 255 255 255 238 240 242 119 109 97 235 184 99 255 208 126 255 206 119 229 182 108 63 56 46 200 160 96 255 208 121 254 202 118 137 111 71 171 138 84 255 210 121 255 212 130 194 148 58 142 145 149 255 255 255 195 189 187 0 3 47 29 196 217 45 217 240 0 204 226 0 198 220 0 198 219 0 197 218 21 208 230 59 210 231 0 58 76 205 200 198 255 255 255 254 254 254 255 255 255 255 255 255 255 255 255 255 255 255 255 255 255 255 255 255 255 255 255 255 255 255 255 255 255 255 255 255 255 255 255 255 255 255 255 255 255 
255 255 255 255 255 255 255 255 255 255 255 255 255 255 255 255 255 255 255 255 255 255 255 255 255 255 255 255 255 255 255 255 255 253 253 253 251 251 251 253 253 253 255 255 255 255 255 255 255 255 255 251 252 252 251 251 251 253 253 253 255 255 255 236 238 241 120 108 94 236 186 101 255 209 126 255 207 121 132 107 69 183 147 89 255 213 124 253 201 117 255 217 126 193 154 93 141 114 72 255 210 122 255 213 131 206 156 53 153 155 155 221 220 221 59 69 68 0 190 212 35 217 240 0 196 218 3 200 222 0 208 230 0 205 227 6 201 223 0 196 218 49 214 236 0 161 181 125 121 119 255 254 254 255 255 255 254 254 254 255 255 255 255 255 255 255 255 255 255 255 255 255 255 255 255 255 255 255 255 255 255 255 255 255 255 255 255 255 255 255 255 255 255 255 255 
255 255 255 255 255 255 255 255 255 255 255 255 255 255 255 255 255 255 255 255 255 255 255 255 255 255 255 255 255 255 252 252 252 255 255 255 255 255 255 255 255 255 255 255 255 255 255 255 255 255 255 255 255 255 255 255 255 252 252 252 255 255 255 244 246 248 124 119 114 220 172 87 255 217 131 240 191 111 115 94 63 236 188 110 255 211 122 255 213 124 219 175 104 40 41 41 224 179 106 255 206 119 255 210 126 220 171 84 133 135 133 116 101 101 4 164 180 2 191 211 32 112 123 33 98 108 32 98 108 27 143 157 3 197 218 0 206 228 0 199 220 24 205 227 0 196 217 47 86 92 238 235 234 255 255 255 254 254 254 255 255 255 255 255 255 255 255 255 255 255 255 255 255 255 255 255 255 255 255 255 255 255 255 255 255 255 255 255 255 255 255 255 255 255 255 
255 255 255 255 255 255 255 255 255 255 255 255 255 255 255 255 255 255 255 255 255 255 255 255 255 255 255 252 252 252 255 255 255 255 255 255 203 212 212 152 169 169 136 147 146 134 143 143 145 159 159 176 191 191 227 231 231 255 255 255 255 255 255 252 253 253 146 149 152 188 143 56 255 220 134 239 190 111 117 96 63 230 184 109 249 198 116 189 151 91 111 92 61 208 166 99 255 207 121 250 199 116 255 209 121 229 185 115 64 15 0 0 78 93 45 206 227 2 183 202 29 132 145 21 160 177 28 138 152 37 0 0 31 112 123 2 199 220 0 203 225 7 201 222 31 205 227 0 89 101 225 221 220 255 255 255 254 254 254 255 255 255 255 255 255 255 255 255 255 255 255 255 255 255 255 255 255 255 255 255 255 255 255 255 255 255 255 255 255 255 255 255 255 255 255 
255 255 255 255 255 255 255 255 255 255 255 255 255 255 255 255 255 255 255 255 255 255 255 255 253 253 253 255 255 255 239 239 239 115 132 131 118 1 14 184 0 0 206 0 14 208 0 17 194 0 0 158 0 0 101 66 67 132 152 151 234 235 235 255 255 255 185 191 196 136 99 0 255 210 127 255 206 121 140 113 71 104 86 58 119 97 64 0 0 21 53 50 43 240 191 113 255 210 122 249 198 115 255 210 122 225 183 113 49 0 0 0 152 171 40 208 230 0 203 225 0 209 231 0 216 239 22 163 180 31 115 127 30 124 136 27 141 155 0 211 234 8 200 222 30 205 226 0 88 100 226 222 221 255 255 255 254 254 254 255 255 255 255 255 255 255 255 255 255 255 255 255 255 255 255 255 255 255 255 255 255 255 255 255 255 255 255 255 255 255 255 255 255 255 255 
255 255 255 255 255 255 255 255 255 255 255 255 255 255 255 255 255 255 255 255 255 254 254 254 255 255 255 239 240 240 75 90 90 175 0 0 255 81 88 255 88 94 255 91 97 255 91 97 255 90 96 255 83 90 242 63 71 176 0 0 41 47 48 206 211 210 247 246 248 105 100 91 221 172 87 255 222 134 198 158 93 48 46 42 224 179 106 244 194 114 192 154 93 67 59 47 229 183 108 255 205 119 255 209 125 220 173 97 34 56 60 0 185 206 36 208 229 0 201 222 0 203 225 0 201 223 33 92 100 15 174 193 11 183 203 35 66 71 0 195 216 27 211 233 0 192 213 50 87 93 239 236 235 255 255 255 254 254 254 255 255 255 255 255 255 255 255 255 255 255 255 255 255 255 255 255 255 255 255 255 255 255 255 255 255 255 255 255 255 255 255 255 255 255 255 
255 255 255 255 255 255 255 255 255 255 255 255 255 255 255 255 255 255 255 255 255 255 255 255 255 255 255 116 131 131 170 0 0 255 99 104 255 85 91 254 82 88 252 81 87 252 80 87 254 81 88 255 84 91 255 89 95 255 90 96 226 51 60 75 0 0 182 191 189 178 179 185 154 115 11 255 211 125 255 203 119 133 109 70 232 185 109 255 212 123 255 210 123 178 143 87 169 136 84 255 209 121 255 211 128 210 158 75 0 107 123 0 200 223 33 205 227 0 200 221 0 207 229 12 181 200 34 69 74 0 203 224 2 196 217 27 152 167 0 189 209 47 217 240 0 161 181 122 120 119 254 253 253 255 255 255 255 254 254 255 255 255 255 255 255 255 255 255 255 255 255 255 255 255 255 255 255 255 255 255 255 255 255 255 255 255 255 255 255 255 255 255 255 255 255 
255 255 255 255 255 255 255 255 255 255 255 255 255 255 255 255 255 255 253 253 253 255 255 255 195 202 202 102 0 0 255 95 101 255 81 87 252 80 86 255 83 89 255 84 90 255 84 90 255 82 89 254 81 87 252 80 86 253 81 87 255 92 98 242 63 72 119 39 32 127 146 149 122 111 108 225 176 92 255 212 126 248 197 115 252 200 117 254 202 118 255 203 118 255 204 119 251 199 117 254 202 117 255 211 128 179 130 48 0 130 153 36 208 229 9 203 224 0 201 222 0 207 230 31 113 124 28 132 146 0 212 235 0 200 221 0 207 229 0 201 222 55 213 235 0 98 116 192 185 183 255 255 255 255 255 255 255 255 255 255 255 255 255 255 255 255 255 255 255 255 255 255 255 255 255 255 255 255 255 255 255 255 255 255 255 255 255 255 255 255 255 255 255 255 255 
255 255 255 255 255 255 255 255 255 255 255 255 255 255 255 255 255 255 255 255 255 255 255 255 98 110 110 214 43 52 255 89 96 252 79 86 255 83 90 224 74 80 182 64 68 191 66 70 234 77 82 255 83 90 255 83 90 255 81 88 251 79 86 255 87 94 244 72 80 124 63 55 0 34 64 159 123 77 255 204 119 255 205 120 255 202 118 255 203 118 255 202 118 255 203 118 255 202 118 255 205 120 254 203 120 136 97 32 0 153 177 49 211 231 0 201 223 0 202 224 0 202 224 27 145 160 8 188 208 0 206 229 3 201 223 0 197 219 47 213 235 0 176 196 78 84 85 242 240 239 255 255 255 253 252 252 254 254 254 254 254 254 255 255 255 255 255 255 255 255 255 255 255 255 255 255 255 255 255 255 255 255 255 255 255 255 255 255 255 255 255 255 255 255 255 
255 255 255 255 255 255 255 255 255 255 255 255 255 255 255 253 253 253 255 255 255 222 227 227 99 0 0 255 85 91 255 80 87 255 83 89 182 64 68 64 41 42 155 58 61 142 55 58 99 46 48 150 56 59 226 75 80 255 83 90 255 83 89 251 79 86 255 85 91 240 80 84 88 36 33 0 0 0 217 170 102 255 209 121 254 201 117 255 203 118 255 203 118 255 203 119 253 200 117 255 210 125 238 187 105 85 79 65 0 178 201 45 210 231 0 200 222 0 202 224 0 202 224 0 209 231 0 204 226 0 202 224 0 200 221 19 204 226 38 206 228 0 64 82 195 188 186 255 255 255 255 255 255 255 255 255 255 255 255 254 254 254 252 252 252 253 253 253 255 255 255 255 255 255 255 255 255 255 255 255 255 255 255 255 255 255 255 255 255 255 255 255 255 255 255 
255 255 255 255 255 255 255 255 255 255 255 255 255 255 255 252 252 252 255 255 255 191 201 200 145 0 0 255 89 95 255 82 89 225 74 80 96 46 47 234 77 82 255 86 92 255 87 94 165 60 63 55 39 39 85 44 45 155 57 61 240 78 84 255 82 88 250 80 86 255 83 90 228 84 84 0 0 16 83 79 53 250 197 116 255 206 120 253 201 117 252 200 116 252 200 116 249 197 114 255 209 126 214 163 81 0 93 107 0 197 219 33 207 228 0 200 222 0 202 224 0 202 224 0 200 222 0 202 224 0 201 222 0 201 222 46 213 235 0 131 150 157 148 149 255 255 255 255 255 255 255 255 255 255 255 255 255 255 255 255 255 255 255 255 255 255 255 255 252 252 252 255 255 255 255 255 255 255 255 255 255 255 255 255 255 255 255 255 255 255 255 255 255 255 255 
255 255 255 255 255 255 255 255 255 255 255 255 255 255 255 252 252 252 255 255 255 185 195 195 153 0 0 255 89 95 255 83 89 213 71 76 123 51 53 255 82 89 255 84 91 220 73 78 85 44 45 243 79 85 242 79 85 113 48 50 168 61 65 255 84 90 252 81 87 252 81 87 255 82 90 211 81 78 0 0 0 159 132 81 255 207 121 255 204 119 255 209 126 255 212 129 255 213 129 255 219 136 189 141 64 0 114 138 44 206 226 6 203 225 0 201 223 0 202 224 0 202 224 0 203 225 2 201 222 0 200 221 38 213 236 0 160 181 92 85 83 208 208 202 204 206 200 168 168 162 156 156 152 151 152 148 161 162 156 186 187 179 223 224 219 255 255 255 255 255 255 252 252 252 255 255 255 255 255 255 255 255 255 255 255 255 255 255 255 255 255 255 255 255 255 
255 255 255 255 255 255 255 255 255 255 255 255 255 255 255 253 253 253 255 255 255 210 217 217 115 0 0 255 90 96 255 79 86 253 82 88 122 50 53 160 58 62 255 88 95 142 54 57 170 61 65 255 82 89 255 83 90 255 83 89 243 79 85 255 82 88 255 81 88 254 81 88 252 80 87 255 84 91 203 75 75 0 0 0 210 172 108 255 215 130 242 191 106 223 174 86 224 175 88 235 184 96 147 111 55 0 167 191 53 214 235 0 197 219 3 202 224 0 202 224 0 203 224 0 200 221 0 202 223 31 211 235 42 166 186 0 0 0 84 81 68 109 109 136 93 78 143 115 101 173 131 116 192 136 121 198 127 112 187 106 92 159 84 78 110 145 146 138 238 238 237 255 255 255 252 252 252 255 255 255 255 255 255 255 255 255 255 255 255 255 255 255 255 255 255 
255 255 255 255 255 255 255 255 255 255 255 255 255 255 255 254 254 254 255 255 255 250 250 250 82 89 89 222 61 68 255 89 95 255 79 86 236 78 84 124 51 53 113 48 50 109 48 50 253 82 88 255 85 92 251 80 86 255 81 88 255 83 89 254 81 87 255 81 88 255 81 88 254 82 88 250 79 86 255 87 91 212 76 87 64 46 0 145 108 0 121 103 79 127 122 116 131 128 124 123 112 100 4 0 0 0 122 141 42 206 227 31 208 230 0 200 221 2 203 224 0 199 220 0 205 227 39 209 234 0 149 162 0 0 0 94 82 118 144 134 202 171 154 237 192 177 255 201 185 255 199 184 255 196 181 255 198 183 255 195 180 255 180 165 247 108 92 166 96 96 93 234 234 233 255 255 255 252 252 252 255 255 255 255 255 255 255 255 255 255 255 255 255 255 255 
255 255 255 255 255 255 255 255 255 255 255 255 255 255 255 255 255 255 253 253 253 255 255 255 196 203 202 78 0 0 255 94 100 255 86 92 255 79 85 247 81 87 161 59 62 74 42 43 155 57 61 223 74 79 253 81 87 254 81 87 252 81 87 255 81 88 255 81 88 255 81 88 254 81 88 254 79 86 255 91 98 177 0 0 77 84 87 181 187 193 227 230 233 242 244 246 244 246 248 235 238 241 216 217 218 147 141 140 0 74 87 0 187 207 33 209 231 0 197 218 12 209 232 37 201 224 0 117 118 51 0 0 142 129 191 185 172 254 201 184 255 202 186 255 190 174 255 178 163 242 185 169 252 191 175 255 183 167 250 185 170 253 193 177 255 202 187 255 116 100 175 126 127 119 252 252 252 255 255 255 253 253 253 255 255 255 255 255 255 255 255 255 255 255 255 
255 255 255 255 255 255 255 255 255 255 255 255 255 255 255 255 255 255 255 255 255 255 255 255 255 255 255 159 170 169 93 0 0 245 85 91 255 93 99 255 81 87 255 82 89 232 76 82 168 60 64 99 47 49 230 76 82 255 82 89 254 81 87 255 81 88 255 81 88 254 81 88 254 79 86 255 94 100 155 0 0 105 131 131 242 242 242 255 255 255 255 255 255 255 255 255 255 255 255 255 255 255 255 255 255 255 255 255 195 187 185 0 58 66 0 187 207 38 217 241 0 182 201 0 74 54 104 77 124 172 159 235 194 179 255 185 169 252 154 142 209 115 106 155 89 82 118 84 78 110 80 74 104 148 136 200 191 175 255 185 170 253 182 166 249 190 174 255 191 176 255 78 65 122 203 204 197 255 255 255 253 253 253 255 255 255 255 255 255 255 255 255 255 255 255 
255 255 255 255 255 255 255 255 255 255 255 255 255 255 255 255 255 255 255 255 255 254 254 254 255 255 255 255 255 255 174 183 183 56 0 0 191 0 21 253 87 93 255 90 96 255 85 92 255 83 90 242 79 85 250 80 87 255 81 88 255 81 88 255 81 88 255 82 88 251 78 85 255 95 101 196 2 31 95 114 113 251 252 252 255 255 255 254 254 254 254 254 254 253 253 253 255 255 255 253 253 253 252 252 252 255 255 255 255 255 255 188 177 174 0 99 114 0 158 171 18 45 28 142 120 184 187 173 255 195 179 255 167 153 227 77 72 100 79 73 103 130 119 175 63 59 80 123 113 165 161 148 219 44 43 49 155 142 210 192 176 255 185 169 252 183 167 250 199 183 255 127 112 187 157 158 152 255 255 255 255 255 255 254 254 254 255 255 255 255 255 255 255 255 255 
255 255 255 255 255 255 255 255 255 255 255 255 255 255 255 255 255 255 255 255 255 255 255 255 254 254 254 255 255 255 255 255 255 222 226 226 120 134 134 91 0 0 177 0 0 234 65 72 255 83 90 255 86 93 255 83 90 255 81 88 254 81 88 254 81 88 251 80 86 255 86 93 249 81 87 101 0 0 217 225 225 255 252 252 238 238 238 253 253 253 250 250 250 253 253 253 246 246 246 254 254 254 255 255 255 254 254 254 255 255 255 255 255 255 123 121 115 48 0 65 169 152 226 193 178 255 186 170 254 193 176 255 156 144 212 82 76 107 178 163 242 205 188 255 125 115 169 112 103 150 202 185 255 136 125 184 85 79 112 194 177 255 185 169 252 183 168 250 198 182 255 144 129 207 141 141 140 253 253 252 255 255 255 253 253 253 255 255 255 255 255 255 255 255 255 
255 255 255 255 255 255 255 255 255 255 255 255 255 255 255 255 255 255 255 255 255 255 255 255 255 255 255 254 254 254 254 254 254 255 255 255 255 255 255 218 223 223 144 158 158 82 80 80 123 0 0 186 18 26 231 71 74 254 86 88 255 86 90 255 87 90 255 83 87 255 101 104 208 0 2 119 124 124 255 255 255 174 171 172 176 176 176 229 229 229 148 148 148 232 232 232 125 125 125 255 255 255 199 199 199 193 193 193 255 255 255 255 255 255 195 196 188 105 93 152 194 178 255 186 170 253 184 169 251 190 175 255 182 166 247 94 87 124 150 138 203 204 187 255 148 136 201 75 69 96 187 172 255 172 157 233 135 124 182 190 174 255 185 170 253 182 166 249 200 185 255 132 116 193 151 151 146 255 255 255 255 255 255 254 254 254 255 255 255 255 255 255 255 255 255 
255 255 255 255 255 255 255 255 255 255 255 255 255 255 255 255 255 255 255 255 255 255 255 255 255 255 255 255 255 255 254 254 254 251 251 252 253 253 253 255 255 255 255 255 255 254 255 254 211 219 218 148 165 166 81 89 96 98 0 41 155 32 63 192 44 72 215 52 78 247 79 98 167 0 0 161 172 171 255 255 255 154 153 153 195 195 195 231 231 231 123 123 123 237 237 237 99 99 99 255 255 255 179 179 179 159 159 159 255 255 255 255 255 255 230 230 227 84 79 108 181 166 249 187 171 254 184 169 251 185 169 252 190 174 255 136 125 184 135 124 183 193 177 255 178 163 242 157 144 212 182 167 249 188 172 255 189 173 255 184 169 251 184 169 252 195 179 255 189 174 255 67 52 116 200 201 194 255 255 255 254 254 254 255 255 255 255 255 255 255 255 255 255 255 255 
255 255 255 255 255 255 255 255 255 255 255 255 255 255 255 255 255 255 255 255 255 255 255 255 255 255 255 253 253 253 253 253 253 255 255 255 255 255 255 255 255 255 238 237 241 217 217 223 198 195 202 170 166 170 113 113 109 24 67 0 26 87 29 35 93 25 65 94 35 102 95 58 0 0 0 183 184 185 255 255 255 181 181 181 144 144 144 187 187 187 134 134 134 255 255 255 116 116 116 194 194 194 148 148 148 192 192 192 255 255 255 255 255 255 239 240 237 93 90 110 183 168 254 194 178 255 191 175 255 190 174 255 189 173 255 190 175 255 191 176 255 189 174 255 190 175 255 195 179 255 191 175 255 190 175 255 192 176 255 195 179 255 195 179 255 183 168 250 82 66 139 143 144 136 254 254 255 255 255 255 253 253 253 255 255 255 255 255 255 255 255 255 255 255 255 
255 255 255 255 255 255 255 255 255 255 255 255 255 255 255 255 255 255 255 255 255 255 255 255 252 252 252 255 255 255 255 255 255 244 244 246 203 202 210 153 152 159 110 111 94 96 104 0 113 124 0 146 158 0 182 192 0 203 212 46 209 217 44 211 219 44 208 217 42 211 225 62 125 138 0 175 173 181 255 255 255 249 249 248 141 141 141 95 95 95 225 225 225 255 255 255 217 217 217 93 93 93 150 150 150 248 248 248 255 255 255 255 255 255 235 235 235 66 63 64 136 122 175 162 148 215 171 157 233 178 164 245 183 168 251 182 166 250 180 163 249 183 167 253 187 171 255 185 170 253 185 169 253 182 166 250 174 158 242 160 144 225 130 116 188 71 63 102 153 154 146 250 250 250 255 255 255 253 253 253 255 255 255 255 255 255 255 255 255 255 255 255 255 255 255 
255 255 255 255 255 255 255 255 255 255 255 255 255 255 255 255 255 255 255 255 255 252 252 252 255 255 255 255 255 254 188 187 196 111 111 109 105 113 0 150 161 0 190 201 0 211 223 52 229 241 69 235 248 68 222 235 52 215 227 39 214 227 40 214 226 41 211 222 36 229 240 67 166 175 0 142 142 147 253 253 254 255 255 255 255 255 255 227 227 227 208 208 208 255 255 255 224 224 224 184 184 184 255 255 255 255 255 255 249 249 249 255 255 255 210 210 206 0 0 98 28 49 140 29 36 68 49 44 0 69 62 56 87 79 106 113 107 147 129 122 166 116 107 157 96 84 142 95 83 141 103 94 143 104 96 137 104 99 126 117 116 121 152 153 142 214 215 210 255 255 255 255 255 255 252 252 252 255 255 255 255 255 255 255 255 255 255 255 255 255 255 255 255 255 255 
255 255 255 255 255 255 255 255 255 255 255 255 255 255 255 255 255 255 253 253 253 255 255 255 246 246 246 128 126 138 96 105 0 178 189 0 216 227 53 223 235 68 217 229 59 224 236 46 196 207 37 149 157 34 198 209 40 212 223 41 209 221 41 210 222 41 207 218 38 216 228 55 197 209 7 88 92 45 231 229 235 255 255 255 255 255 255 246 246 246 68 68 68 171 171 171 92 92 92 193 193 193 255 255 255 248 248 248 252 252 252 255 255 255 143 143 122 47 63 198 106 118 255 91 102 237 73 85 200 46 58 140 0 0 0 72 74 0 153 154 127 198 199 191 216 218 215 213 214 209 205 206 198 214 215 208 229 230 225 245 245 243 255 255 255 255 255 255 254 254 254 253 253 252 255 255 255 255 255 255 255 255 255 255 255 255 255 255 255 255 255 255 255 255 255 
255 255 255 255 255 255 255 255 255 255 255 255 255 255 255 254 254 254 255 255 255 251 251 251 111 109 122 127 137 0 217 229 58 223 235 64 210 222 45 207 219 35 220 232 39 172 181 41 97 102 40 80 83 40 139 146 41 217 230 41 210 222 40 212 224 40 212 224 42 206 218 32 227 238 67 152 161 0 129 130 139 255 255 255 255 255 255 252 252 252 225 225 225 145 145 145 197 197 197 255 255 255 250 250 250 249 249 248 255 255 255 207 207 199 5 26 101 92 104 250 100 112 255 100 112 255 103 115 255 104 115 255 98 107 243 85 92 202 94 97 158 141 140 141 200 199 189 251 251 251 255 255 255 255 255 255 255 255 255 255 255 255 255 255 255 251 251 251 254 254 254 255 255 255 255 255 255 255 255 255 255 255 255 255 255 255 255 255 255 255 255 255 255 255 255 
255 255 255 255 255 255 255 255 255 255 255 255 255 255 255 253 253 253 255 255 255 157 156 166 109 119 0 223 235 67 214 226 46 204 216 34 215 226 40 217 229 43 140 148 41 54 57 39 182 192 41 195 206 42 88 92 39 210 222 42 212 224 40 212 223 42 208 220 36 219 230 49 206 218 38 120 129 38 0 0 0 154 158 155 255 255 255 255 255 255 255 255 255 255 255 255 255 255 255 255 255 255 255 255 255 255 255 255 216 215 208 61 61 53 75 88 224 103 115 255 95 108 252 95 108 252 95 108 253 93 105 246 97 110 255 98 111 255 80 94 248 34 59 215 0 0 152 72 73 82 169 168 152 242 242 242 255 255 255 250 250 249 254 254 254 255 255 255 255 255 255 255 255 255 255 255 255 255 255 255 255 255 255 255 255 255 255 255 255 255 255 255 255 255 255 
255 255 255 255 255 255 255 255 255 255 255 255 252 252 253 255 255 255 230 230 232 60 65 0 207 218 43 215 227 44 207 219 38 220 232 42 203 214 42 95 100 39 120 127 40 208 219 42 236 249 42 176 186 42 98 103 39 215 227 42 211 222 41 209 221 37 221 232 50 198 209 48 34 73 0 168 128 155 249 198 218 141 106 121 92 107 102 209 212 211 251 251 251 255 255 255 255 255 255 255 255 255 238 236 239 174 172 171 41 48 90 72 84 217 104 116 255 96 108 254 96 108 254 97 109 255 99 111 255 70 78 173 60 66 143 100 113 255 102 114 255 106 118 255 99 112 255 75 89 234 0 17 157 85 85 69 213 213 209 255 255 255 253 253 253 255 255 255 255 255 255 255 255 255 255 255 255 255 255 255 255 255 255 255 255 255 255 255 255 255 255 255 255 255 255 
255 255 255 255 255 255 255 255 255 255 255 255 251 251 251 255 255 255 170 169 180 133 142 0 221 233 51 208 220 39 217 229 42 182 192 42 88 92 40 75 78 38 115 121 40 183 193 42 169 178 41 43 44 38 177 187 42 216 228 41 209 221 38 222 233 52 182 193 35 0 27 0 178 138 163 255 206 227 255 206 229 255 203 226 200 155 174 110 85 95 100 99 100 139 130 136 147 137 144 124 117 124 55 87 71 0 0 0 76 81 209 105 118 255 95 107 252 97 110 255 98 110 255 96 108 252 99 111 255 90 101 234 48 51 98 86 96 222 99 112 255 94 106 250 99 111 255 103 115 255 102 114 255 64 79 218 0 0 54 197 197 190 255 255 255 253 253 252 255 255 255 255 255 255 255 255 255 255 255 255 255 255 255 255 255 255 255 255 255 255 255 255 255 255 255 
255 255 255 255 255 255 255 255 255 255 255 255 253 253 253 255 255 255 132 130 142 171 181 0 218 230 47 210 222 41 216 227 41 176 185 42 170 180 42 218 230 43 159 168 41 99 104 39 106 111 39 179 189 42 215 227 41 212 224 39 221 232 54 163 175 2 0 0 0 196 153 175 255 215 237 255 204 227 252 199 221 255 202 224 255 211 234 242 190 212 0 52 18 0 158 76 0 161 79 0 170 87 0 203 124 14 154 58 65 41 142 96 109 254 98 112 255 92 103 241 93 104 243 99 112 255 98 110 255 100 113 255 66 73 161 72 81 182 101 114 255 95 107 252 96 109 255 96 108 254 97 110 255 105 117 255 82 95 236 0 0 60 206 205 200 255 255 255 251 251 251 255 255 255 255 255 255 255 255 255 255 255 255 255 255 255 255 255 255 255 255 255 255 255 255 
255 255 255 255 255 255 255 255 255 254 254 254 254 254 254 255 255 255 123 122 131 179 190 0 217 229 47 211 222 41 211 223 41 216 228 41 217 229 41 212 224 40 218 230 41 216 228 42 218 230 42 216 228 40 214 225 42 218 228 56 139 152 0 0 0 0 215 170 189 255 210 231 218 173 192 240 190 210 255 205 227 252 199 221 255 208 230 211 161 183 0 97 34 45 215 129 25 211 124 26 207 122 11 211 125 17 194 118 14 73 0 80 76 204 102 119 255 82 91 210 42 44 70 84 94 217 99 111 255 94 105 246 54 58 119 81 91 207 102 115 255 94 106 249 97 109 255 97 109 255 96 109 255 95 108 253 105 117 255 72 85 226 60 60 63 233 233 232 255 255 255 251 251 251 255 255 255 255 255 255 255 255 255 255 255 255 255 255 255 255 255 255 255 255 255 
255 255 255 255 255 255 255 255 255 255 255 255 252 252 253 255 255 255 138 136 149 165 175 0 218 230 47 210 221 41 212 224 41 210 222 41 210 222 41 211 223 41 210 222 41 210 222 41 207 219 39 214 226 43 214 225 54 112 127 0 0 0 48 229 183 200 247 196 216 122 98 109 76 66 69 118 96 105 238 189 209 255 203 226 255 207 229 153 110 132 0 128 57 36 211 125 0 199 116 0 202 118 0 201 116 7 211 130 7 141 62 48 0 93 94 107 246 100 113 255 80 89 204 46 49 91 57 62 130 55 60 125 39 40 60 65 72 159 97 109 254 99 112 255 96 108 254 97 109 255 97 109 255 96 109 255 97 109 254 105 117 255 0 41 181 151 150 133 255 255 255 254 254 254 254 254 254 255 255 255 255 255 255 255 255 255 255 255 255 255 255 255 255 255 255 
255 255 255 255 255 255 255 255 255 255 255 255 251 251 251 255 255 255 190 190 198 106 114 0 222 234 60 208 220 34 210 222 41 212 223 41 212 223 41 211 223 41 209 221 38 209 221 38 218 230 41 213 224 52 96 114 0 73 33 89 242 193 211 248 196 217 51 48 50 177 141 156 255 209 232 134 108 119 191 152 168 255 211 234 242 193 213 66 0 51 0 158 91 7 211 123 0 200 117 0 204 119 1 201 117 0 209 120 26 187 120 6 49 0 69 65 166 102 116 255 99 112 255 95 108 251 81 91 210 87 97 225 95 107 249 59 65 139 54 59 120 93 105 245 98 110 255 96 108 254 97 109 255 97 109 255 95 108 254 104 116 255 77 92 240 80 82 112 234 233 229 255 255 255 251 251 251 255 255 255 255 255 255 255 255 255 255 255 255 255 255 255 255 255 255 
255 255 255 255 255 255 255 255 255 255 255 255 254 254 254 255 255 255 249 249 249 83 82 91 172 182 0 227 239 70 211 223 42 209 220 37 209 220 37 210 222 39 218 230 58 221 233 57 202 212 53 97 112 0 126 91 123 252 201 220 255 205 228 99 82 89 176 141 155 255 215 239 255 207 230 147 118 130 193 153 170 255 215 239 191 154 169 0 0 0 36 177 107 0 211 122 0 207 121 0 204 119 0 203 118 0 203 118 0 209 122 36 127 86 0 0 0 75 87 204 104 117 255 95 107 254 101 114 255 99 112 255 98 111 255 99 112 255 66 73 161 52 57 114 94 105 245 98 111 255 96 108 254 97 109 255 96 108 254 101 113 255 92 105 255 46 55 148 209 209 197 255 255 255 251 251 251 255 255 255 255 255 255 255 255 255 255 255 255 255 255 255 255 255 255 
255 255 255 255 255 255 255 255 255 255 255 255 255 255 255 253 253 253 255 255 255 218 217 220 43 47 0 169 179 0 219 231 59 223 235 66 224 235 66 222 233 65 201 213 0 157 165 0 19 55 0 112 80 112 255 204 223 255 212 236 179 143 158 122 99 108 255 207 230 255 205 228 238 188 209 105 87 94 228 180 200 255 208 230 98 78 87 0 0 0 28 190 113 3 200 117 23 161 96 1 201 117 0 206 120 0 199 116 9 212 123 0 173 103 67 62 60 50 41 42 75 90 220 108 119 255 91 103 246 96 108 251 95 107 251 98 110 255 98 111 255 83 93 214 93 104 243 98 110 255 96 109 254 97 109 255 96 108 254 101 113 255 95 108 255 42 53 156 203 203 190 255 255 255 252 252 251 255 255 255 255 255 255 255 255 255 255 255 255 255 255 255 255 255 255 
255 255 255 255 255 255 255 255 255 255 255 255 255 255 255 255 255 255 253 253 253 255 255 255 216 215 219 101 100 103 107 116 0 142 152 0 145 156 0 118 128 0 108 111 66 125 123 135 0 15 53 231 184 200 255 208 231 249 197 218 123 100 109 215 170 188 255 208 231 255 210 233 167 133 147 136 109 120 255 215 238 201 157 175 97 103 102 89 96 92 0 197 112 21 184 109 34 74 53 3 200 117 0 207 120 0 201 117 13 205 120 0 203 117 34 100 74 174 168 167 67 70 80 64 78 216 112 123 255 93 106 252 96 108 253 96 109 254 96 109 255 100 113 255 98 110 255 96 108 254 97 109 255 97 109 255 96 108 254 102 114 255 88 102 251 60 65 129 220 220 211 255 255 255 251 251 251 255 255 255 255 255 255 255 255 255 255 255 255 255 255 255 255 255 255 
255 255 255 255 255 255 255 255 255 255 255 255 255 255 255 255 255 255 255 255 255 253 253 254 255 255 255 245 245 246 199 197 206 170 169 177 168 167 174 180 179 188 240 238 244 190 195 193 150 120 128 255 203 226 255 204 226 248 196 217 90 75 81 234 185 205 255 221 245 189 150 166 79 68 72 240 190 211 255 208 230 103 81 90 193 193 194 95 110 100 0 201 112 23 179 106 32 96 62 0 205 119 0 205 119 2 203 118 0 200 116 50 216 131 0 132 31 174 168 176 226 226 221 43 45 46 37 56 193 112 123 255 99 111 255 93 106 251 96 108 253 96 108 252 97 109 255 97 109 255 97 109 255 96 108 253 93 106 251 110 121 255 48 65 205 119 118 104 253 253 254 255 255 255 253 253 253 255 255 255 255 255 255 255 255 255 255 255 255 255 255 255 255 255 255 
255 255 255 255 255 255 255 255 255 255 255 255 255 255 255 255 255 255 255 255 255 254 254 254 253 253 253 255 255 255 255 255 255 255 255 255 255 255 255 255 255 255 255 255 255 144 152 148 193 147 167 255 207 230 255 201 223 255 205 227 175 140 154 92 76 83 140 113 124 90 76 82 219 173 192 255 221 244 185 138 158 134 140 137 238 235 237 57 91 70 0 205 117 22 173 103 32 100 65 0 207 121 0 204 119 1 203 118 0 202 117 29 209 123 0 187 106 65 76 68 254 253 255 235 235 232 106 105 91 0 0 140 95 107 245 109 120 255 100 112 255 96 108 254 95 107 253 95 107 253 95 107 253 98 110 255 112 123 255 72 85 224 0 0 58 219 219 216 255 255 255 251 251 251 255 255 255 255 255 255 255 255 255 255 255 255 255 255 255 255 255 255 255 255 255 
255 255 255 255 255 255 255 255 255 255 255 255 255 255 255 255 255 255 255 255 255 255 255 255 255 255 255 253 253 253 254 254 254 255 255 255 254 255 254 255 255 255 254 254 254 120 125 123 216 166 187 255 208 230 254 200 222 255 202 225 255 201 223 205 163 180 192 153 169 240 190 210 255 211 234 247 196 218 76 42 58 222 225 224 244 241 243 22 81 52 0 207 119 23 169 100 32 103 66 0 208 121 0 202 118 0 203 118 1 204 119 0 202 117 43 212 127 0 86 0 208 203 206 255 255 255 248 248 248 173 173 162 2 13 73 0 23 171 83 95 236 100 112 255 104 116 255 104 116 255 103 115 255 92 104 247 0 18 177 30 32 52 209 209 204 255 255 255 253 253 252 255 255 255 255 255 255 255 255 255 255 255 255 255 255 255 255 255 255 255 255 255 255 255 255 
255 255 255 255 255 255 255 255 255 255 255 255 255 255 255 255 255 255 255 255 255 255 255 255 255 255 255 255 255 255 255 255 255 254 254 254 252 252 252 255 255 255 254 254 254 122 125 123 219 170 190 255 208 230 254 201 223 254 201 223 255 202 224 255 207 230 255 207 229 255 203 225 255 213 236 153 110 128 145 151 149 255 255 255 240 237 239 44 81 60 0 205 118 25 166 99 32 109 69 0 215 125 0 209 122 0 204 119 1 203 119 0 201 116 41 214 128 0 139 55 164 156 162 255 255 255 255 255 255 255 255 255 233 233 230 164 164 152 86 86 92 0 19 115 0 0 145 0 0 153 0 0 131 53 55 86 149 149 136 235 235 232 255 255 255 254 254 253 254 254 255 255 255 255 255 255 255 255 255 255 255 255 255 255 255 255 255 255 255 255 255 255 255 255 255 
255 255 255 255 255 255 255 255 255 255 255 255 255 255 255 255 255 255 255 255 255 255 255 255 255 255 255 255 255 255 255 255 255 255 255 255 254 254 254 255 255 255 255 255 255 127 134 131 209 161 181 255 207 230 254 201 223 255 201 224 254 201 223 252 199 221 252 198 220 255 215 238 199 153 172 86 91 89 241 242 242 255 255 255 244 242 243 78 89 82 0 198 112 28 169 101 33 69 50 9 188 111 24 156 93 33 96 63 13 183 108 0 207 120 33 210 124 0 171 88 123 117 122 255 255 255 254 254 254 254 254 254 255 255 255 255 255 255 248 248 247 223 223 217 203 203 194 198 198 188 212 212 204 240 240 237 255 255 255 255 255 255 254 254 254 255 255 255 255 255 255 255 255 255 255 255 255 255 255 255 255 255 255 255 255 255 255 255 255 255 255 255 255 255 255 
255 255 255 255 255 255 255 255 255 255 255 255 255 255 255 255 255 255 255 255 255 255 255 255 255 255 255 255 255 255 255 255 255 255 255 255 255 255 255 251 252 251 255 255 255 156 164 161 175 134 151 255 209 232 253 199 221 252 199 221 253 200 222 255 204 226 255 214 237 212 164 184 56 52 53 221 223 222 255 255 255 253 253 253 255 255 255 117 110 115 0 177 94 29 203 120 29 122 76 34 83 57 32 104 67 21 164 98 1 202 118 0 203 118 23 208 122 0 186 103 93 97 95 250 249 250 255 255 255 254 254 254 254 254 254 253 253 253 255 255 255 255 255 255 255 255 255 255 255 255 255 255 255 255 255 255 254 254 254 254 254 254 255 255 255 255 255 255 255 255 255 255 255 255 255 255 255 255 255 255 255 255 255 255 255 255 255 255 255 255 255 255 255 255 255 
255 255 255 255 255 255 255 255 255 255 255 255 255 255 255 255 255 255 255 255 255 255 255 255 255 255 255 255 255 255 255 255 255 255 255 255 255 255 255 251 251 251 255 255 255 220 222 221 87 67 75 246 194 215 255 214 237 255 209 231 255 211 233 255 202 224 187 142 161 61 62 62 214 216 215 255 255 255 253 253 253 252 252 252 255 255 255 166 157 163 0 135 55 38 216 129 0 206 120 2 205 120 0 210 122 0 212 123 0 205 119 0 202 118 15 207 121 0 191 108 79 92 84 246 245 246 255 255 255 254 254 254 255 255 255 255 255 255 254 254 254 253 253 253 252 252 252 252 252 252 252 252 252 254 254 254 255 255 255 255 255 255 255 255 255 255 255 255 255 255 255 255 255 255 255 255 255 255 255 255 255 255 255 255 255 255 255 255 255 255 255 255 255 255 255 
250 250 250 255 255 255 254 254 254 255 255 255 255 255 255 255 255 255 255 255 255 255 255 255 255 255 255 255 255 255 255 255 255 255 255 255 255 255 255 255 254 255 253 253 253 255 255 255 156 161 159 121 81 98 227 176 197 231 179 201 198 151 170 123 93 106 111 119 116 230 230 230 255 255 255 252 252 252 255 255 255 253 253 253 255 255 255 221 218 220 0 63 0 45 207 125 0 201 116 3 203 119 0 203 118 1 201 117 0 204 119 0 203 118 16 207 121 0 187 104 92 97 94 250 249 249 255 255 255 254 254 254 255 255 255 255 255 255 255 255 255 255 255 255 255 255 255 255 255 255 255 255 255 255 255 255 255 255 255 255 255 255 255 255 255 255 255 255 255 255 255 255 255 255 255 255 255 255 255 255 255 255 255 255 255 255 255 255 255 255 255 255 255 255 255 
253 253 253 255 255 255 255 255 255 255 255 255 255 255 255 255 255 255 255 255 255 255 255 255 255 255 255 255 255 255 255 255 255 255 255 255 255 255 255 255 255 255 253 253 253 255 255 255 255 254 255 168 172 171 113 110 111 124 116 119 133 139 137 195 200 198 255 255 255 255 255 255 251 251 251 255 255 255 255 255 255 255 255 255 255 255 255 255 255 255 135 126 133 0 138 54 61 220 136 0 197 113 0 200 116 0 203 118 0 203 118 0 197 113 38 214 127 0 165 87 130 122 128 255 255 255 254 254 254 255 255 255 255 255 255 255 255 255 255 255 255 255 255 255 255 255 255 255 255 255 255 255 255 255 255 255 255 255 255 255 255 255 255 255 255 255 255 255 255 255 255 255 255 255 255 255 255 255 255 255 255 255 255 255 255 255 255 255 255 255 255 255 255 255 255 
255 255 255 255 255 255 255 255 255 255 255 255 255 255 255 255 255 255 255 255 255 255 255 255 255 255 255 255 255 255 255 255 255 255 255 255 255 255 255 255 255 255 255 255 255 253 253 253 255 255 255 255 255 255 242 244 243 239 241 240 255 255 255 255 255 255 255 255 255 251 251 251 255 255 255 255 255 255 255 255 255 255 255 255 254 254 254 255 255 255 235 234 235 46 49 48 0 162 83 65 220 137 37 210 125 26 206 121 26 206 121 45 214 129 61 213 133 0 57 0 201 196 200 255 255 255 253 253 253 255 255 255 255 255 255 255 255 255 255 255 255 255 255 255 255 255 255 255 255 255 255 255 255 255 255 255 255 255 255 255 255 255 255 255 255 255 255 255 255 255 255 255 255 255 255 255 255 255 255 255 255 255 255 255 255 255 255 255 255 255 255 255 255 255 255 
255 255 255 255 255 255 255 255 255 255 255 255 255 255 255 255 255 255 255 255 255 255 255 255 255 255 255 255 255 255 255 255 255 255 255 255 255 255 255 255 255 255 255 255 255 255 255 255 253 253 253 254 254 254 255 255 255 255 255 255 255 255 255 251 251 251 253 253 253 255 255 255 255 255 255 255 255 255 255 255 255 255 255 255 255 255 255 253 253 253 255 255 255 222 220 221 65 67 66 0 124 10 0 188 106 2 202 118 0 201 117 0 181 99 0 75 0 147 141 146 255 255 255 255 255 255 255 255 255 255 255 255 255 255 255 255 255 255 255 255 255 255 255 255 255 255 255 255 255 255 255 255 255 255 255 255 255 255 255 255 255 255 255 255 255 255 255 255 255 255 255 255 255 255 255 255 255 255 255 255 255 255 255 255 255 255 255 255 255 255 255 255 255 255 255 
255 255 255 255 255 255 255 255 255 255 255 255 255 255 255 255 255 255 255 255 255 255 255 255 255 255 255 255 255 255 255 255 255 255 255 255 255 255 255 255 255 255 255 255 255 255 255 255 255 255 255 254 254 254 252 252 252 252 252 252 253 253 253 255 255 255 255 255 255 255 255 255 255 255 255 255 255 255 255 255 255 255 255 255 255 255 255 255 255 255 254 253 254 255 255 255 237 235 236 161 153 158 78 96 85 0 94 54 12 94 57 93 100 95 183 176 181 252 252 252 255 255 255 254 254 254 255 255 255 255 255 255 255 255 255 255 255 255 255 255 255 255 255 255 255 255 255 255 255 255 255 255 255 255 255 255 255 255 255 255 255 255 255 255 255 255 255 255 255 255 255 255 255 255 255 255 255 255 255 255 255 255 255 255 255 255 255 255 255 255 255 255 255 255 255 
255 255 255 255 255 255 255 255 255 255 255 255 255 255 255 255 255 255 255 255 255 255 255 255 255 255 255 255 255 255 255 255 255 255 255 255 255 255 255 255 255 255 255 255 255 255 255 255 255 255 255 255 255 255 255 255 255 255 255 255 255 255 255 255 255 255 255 255 255 255 255 255 255 255 255 255 255 255 255 255 255 255 255 255 255 255 255 255 255 255 254 254 254 254 253 254 255 255 255 255 255 255 243 240 242 230 226 229 232 227 230 247 245 246 255 255 255 255 255 255 254 254 254 255 255 255 255 255 255 255 255 255 255 255 255 255 255 255 255 255 255 255 255 255 255 255 255 255 255 255 255 255 255 255 255 255 255 255 255 255 255 255 255 255 255 255 255 255 255 255 255 255 255 255 255 255 255 255 255 255 255 255 255 255 255 255 255 255 255 255 255 255 255 255 255 
255 255 255 255 255 255 255 255 255 255 255 255 255 255 255 255 255 255 255 255 255 255 255 255 255 255 255 255 255 255 255 255 255 255 255 255 255 255 255 255 255 255 255 255 255 255 255 255 255 255 255 255 255 255 255 255 255 255 255 255 255 255 255 255 255 255 255 255 255 255 255 255 255 255 255 255 255 255 255 255 255 255 255 255 255 255 255 255 255 255 255 255 255 255 255 255 254 253 254 255 255 255 255 255 255 255 255 255 255 255 255 255 255 255 255 255 255 254 254 254 255 255 255 255 255 255 255 255 255 255 255 255 255 255 255 255 255 255 255 255 255 255 255 255 255 255 255 255 255 255 255 255 255 255 255 255 255 255 255 255 255 255 255 255 255 255 255 255 255 255 255 255 255 255 255 255 255 255 255 255 255 255 255 255 255 255 255 255 255 255 255 255 255 255 255 
255 255 255 255 255 255 255 255 255 255 255 255 255 255 255 255 255 255 255 255 255 255 255 255 255 255 255 255 255 255 255 255 255 255 255 255 255 255 255 255 255 255 255 255 255 255 255 255 255 255 255 255 255 255 255 255 255 255 255 255 255 255 255 255 255 255 255 255 255 255 255 255 255 255 255 255 255 255 255 255 255 255 255 255 255 255 255 255 255 255 255 255 255 255 255 255 255 255 255 254 254 254 254 254 254 254 254 254 254 254 254 254 254 254 254 254 254 255 255 255 255 255 255 255 255 255 255 255 255 255 255 255 255 255 255 255 255 255 255 255 255 255 255 255 255 255 255 255 255 255 255 255 255 255 255 255 255 255 255 255 255 255 255 255 255 255 255 255 255 255 255 255 255 255 255 255 255 255 255 255 255 255 255 255 255 255 255 255 255 255 255 255 255 255 255 
255 255 255 255 255 255 255 255 255 255 255 255 255 255 255 255 255 255 255 255 255 255 255 255 255 255 255 255 255 255 255 255 255 255 255 255 255 255 255 255 255 255 255 255 255 255 255 255 255 255 255 255 255 255 255 255 255 255 255 255 255 255 255 255 255 255 255 255 255 255 255 255 255 255 255 255 255 255 255 255 255 255 255 255 255 255 255 255 255 255 255 255 255 255 255 255 255 255 255 255 255 255 255 255 255 255 255 255 255 255 255 255 255 255 255 255 255 255 255 255 255 255 255 255 255 255 255 255 255 255 255 255 255 255 255 255 255 255 255 255 255 255 255 255 255 255 255 255 255 255 255 255 255 255 255 255 255 255 255 255 255 255 255 255 255 255 255 255 255 255 255 255 255 255 255 255 255 255 255 255 255 255 255 255 255 255 255 255 255 255 255 255 255 255 255 
255 255 255 255 255 255 255 255 255 255 255 255 255 255 255 255 255 255 255 255 255 255 255 255 255 255 255 255 255 255 255 255 255 255 255 255 255 255 255 255 255 255 255 255 255 255 255 255 255 255 255 255 255 255 255 255 255 255 255 255 255 255 255 255 255 255 255 255 255 255 255 255 255 255 255 255 255 255 255 255 255 255 255 255 255 255 255 255 255 255 255 255 255 255 255 255 255 255 255 255 255 255 255 255 255 255 255 255 255 255 255 255 255 255 255 255 255 255 255 255 255 255 255 255 255 255 255 255 255 255 255 255 255 255 255 255 255 255 255 255 255 255 255 255 255 255 255 255 255 255 255 255 255 255 255 255 255 255 255 255 255 255 255 255 255 255 255 255 255 255 255 255 255 255 255 255 255 255 255 255 255 255 255 255 255 255 255 255 255 255 255 255 255 255 255 
255 255 255 255 255 255 255 255 255 255 255 255 255 255 255 255 255 255 255 255 255 255 255 255 255 255 255 255 255 255 255 255 255 255 255 255 255 255 255 255 255 255 255 255 255 255 255 255 255 255 255 255 255 255 255 255 255 255 255 255 255 255 255 255 255 255 255 255 255 255 255 255 255 255 255 255 255 255 255 255 255 255 255 255 255 255 255 255 255 255 255 255 255 255 255 255 255 255 255 255 255 255 255 255 255 255 255 255 255 255 255 255 255 255 255 255 255 255 255 255 255 255 255 255 255 255 255 255 255 255 255 255 255 255 255 255 255 255 255 255 255 255 255 255 255 255 255 255 255 255 255 255 255 255 255 255 255 255 255 255 255 255 255 255 255 255 255 255 255 255 255 255 255 255 255 255 255 255 255 255 255 255 255 255 255 255 255 255 255 255 255 255 255 255 255 
255 255 255 255 255 255 255 255 255 255 255 255 255 255 255 255 255 255 255 255 255 255 255 255 255 255 255 255 255 255 255 255 255 255 255 255 255 255 255 255 255 255 255 255 255 255 255 255 255 255 255 255 255 255 255 255 255 255 255 255 255 255 255 255 255 255 255 255 255 255 255 255 255 255 255 255 255 255 255 255 255 255 255 255 255 255 255 255 255 255 255 255 255 255 255 255 255 255 255 255 255 255 255 255 255 255 255 255 255 255 255 255 255 255 255 255 255 255 255 255 255 255 255 255 255 255 255 255 255 255 255 255 255 255 255 255 255 255 255 255 255 255 255 255 255 255 255 255 255 255 255 255 255 255 255 255 255 255 255 255 255 255 255 255 255 255 255 255 255 255 255 255 255 255 255 255 255 255 255 255 255 255 255 255 255 255 255 255 255 255 255 255 255 255 255 
