P3
2 2
255
1 2 3 4 5 6 
10 11 12 13 14 15 
